<svg width="28" height="28" viewBox="0 0 28 28" fill="none" xmlns="http://www.w3.org/2000/svg">
<path d="M0 24.8872V4.18086C0.0920086 4.12747 0.0702349 4.02633 0.0870914 3.94836C0.475494 2.43888 1.43561 1.51591 2.94287 1.14715C3.0131 1.13029 3.10511 1.16892 3.15357 1.0769H23.7551C23.7867 1.15347 23.859 1.12467 23.9145 1.13591C25.6556 1.48711 26.9023 2.94883 26.9044 4.69783C26.9115 11.2579 26.9115 17.8177 26.9044 24.3773C26.898 25.3312 26.5161 26.2442 25.8415 26.9186C25.1669 27.593 24.2538 27.9746 23.2999 27.9806C16.7399 27.9905 10.1802 27.9905 3.62064 27.9806C1.92867 27.9806 0.481814 26.7943 0.0948163 25.1422C0.0730433 25.0586 0.0941156 24.9497 0 24.8872ZM11.8277 13.9661C11.9625 13.8826 12.0644 13.8172 12.1676 13.7554C13.4627 12.9764 13.6903 10.5946 12.0833 9.72218C11.5881 9.43929 11.0297 9.28566 10.4595 9.27544C8.73519 9.27544 7.01091 9.27544 5.28663 9.26912C5.08716 9.26912 5.04221 9.3232 5.04291 9.51707C5.04853 12.7997 5.04853 16.082 5.04291 19.3642C5.04291 19.5608 5.09278 19.6142 5.28944 19.6135C6.85639 19.6058 8.42335 19.6072 9.9896 19.6093C11.0256 19.6093 11.9829 19.3768 12.799 18.6962C13.2463 18.3351 13.5422 17.8197 13.6285 17.2513C13.6635 16.9647 13.6778 16.676 13.6713 16.3873C13.6903 15.3639 13.1846 14.6678 12.3144 14.1979C12.1641 14.1207 12.0117 14.0546 11.8277 13.9661ZM19.1322 16.3775C19.9553 16.3775 20.7785 16.3705 21.6016 16.3824C21.8018 16.3824 21.8566 16.3164 21.8594 16.1289C21.872 15.7176 21.8364 15.3062 21.7534 14.9032C21.2814 12.7756 19.175 11.4403 17.1438 11.9959C14.2915 12.7756 13.4037 16.3508 15.2474 18.5142C16.2307 19.6725 17.5343 19.9746 18.9826 19.714C20.2721 19.4829 21.176 18.7657 21.6094 17.4993C21.6684 17.3251 21.648 17.2668 21.4513 17.2724C21.0299 17.2843 20.6085 17.285 20.1906 17.2724C20.1061 17.2631 20.0207 17.2786 19.9449 17.317C19.8691 17.3554 19.806 17.4151 19.7636 17.4887C19.3077 18.1448 18.5036 18.4222 17.7225 18.2192C16.9717 18.0247 16.5117 17.4705 16.4112 16.662C16.3845 16.4513 16.4239 16.3684 16.6606 16.3726C17.4894 16.3859 18.3125 16.3775 19.1357 16.3775H19.1322ZM18.0491 10.9935C18.4867 10.9935 18.9236 11.0013 19.3604 10.9935C19.628 10.9872 20.0024 11.1165 20.133 10.9366C20.2637 10.7568 20.166 10.3993 20.1815 10.1204C20.1892 9.97996 20.1302 9.94343 20.0003 9.94413C18.715 9.94694 17.4297 9.94694 16.1443 9.94413C16.0109 9.94413 15.9568 9.98066 15.9638 10.1225C15.9772 10.3408 15.9772 10.5597 15.9638 10.7779C15.9512 10.9549 16.0165 11.0013 16.1851 10.9992C16.8109 10.9886 17.4318 10.9935 18.0526 10.9935H18.0491Z" fill="#FF4334"/>
<path d="M8.73029 17.8491C8.31871 17.8491 7.90783 17.8448 7.49625 17.8491C7.3628 17.8491 7.31223 17.8111 7.31293 17.6713C7.31785 16.8488 7.31293 16.0263 7.31293 15.2031C7.31293 15.0914 7.3326 15.0183 7.46815 15.0212C8.35101 15.0401 9.23739 14.9629 10.1167 15.0598C11.1169 15.1687 11.6556 16.0108 11.3459 16.9275C11.1689 17.4508 10.6217 17.8132 9.93623 17.8406C9.53448 17.8568 9.13133 17.8406 8.72888 17.8406L8.73029 17.8491Z" fill="#FF4334"/>
<path d="M8.74501 11.0589C9.12639 11.087 9.59346 11.0055 10.0521 11.1067C10.6884 11.2471 11.0354 11.663 11.0256 12.26C11.0157 12.8571 10.6449 13.2701 10.0107 13.3782C9.37643 13.4864 8.75274 13.4056 8.12343 13.4253C7.91272 13.4316 7.70201 13.4197 7.49131 13.4288C7.35083 13.4344 7.3101 13.3811 7.3108 13.2462C7.31642 12.5803 7.31642 11.9147 7.3108 11.2492C7.3108 11.0989 7.35996 11.0526 7.50746 11.0561C7.89375 11.0638 8.28216 11.0589 8.74501 11.0589Z" fill="#FF4334"/>
<path d="M18.0779 15.0576C17.5975 15.0576 17.1171 15.0484 16.6367 15.0618C16.4414 15.0674 16.426 14.9915 16.4576 14.8328C16.6296 14.0187 17.3208 13.428 18.0997 13.4406C18.8786 13.4533 19.5479 14.0405 19.7151 14.8623C19.753 15.0449 19.6954 15.0625 19.5416 15.0604C19.0556 15.0527 18.5667 15.0576 18.0779 15.0576Z" fill="#FF4334"/>
</svg>
