<svg width="224" height="97" viewBox="0 0 224 97" fill="none" xmlns="http://www.w3.org/2000/svg">
<path d="M42.128 32.04C42.128 33.7467 42.7253 35.1547 43.92 36.264C45.1147 37.3307 46.9067 38.5467 49.296 39.912C51.0453 40.8933 52.432 41.7467 53.456 42.472C54.48 43.1973 55.3547 44.1147 56.08 45.224C56.8053 46.3333 57.168 47.6133 57.168 49.064C57.168 51.7093 56.1013 53.8 53.968 55.336C51.8773 56.8293 49.0613 57.576 45.52 57.576C42.4907 57.576 40.0373 57 38.16 55.848C36.3253 54.696 35.408 53.1387 35.408 51.176C35.408 49.896 35.8347 48.8933 36.688 48.168C37.584 47.4 38.6933 47.016 40.016 47.016C41.04 47.016 42.0213 47.272 42.96 47.784C41.6373 48.4667 40.976 49.8107 40.976 51.816C40.976 53.0107 41.4027 54.0347 42.256 54.888C43.152 55.6987 44.3467 56.104 45.84 56.104C47.376 56.104 48.5707 55.6773 49.424 54.824C50.32 53.9707 50.768 52.904 50.768 51.624C50.768 50.1307 50.2133 48.9147 49.104 47.976C48.0373 46.9947 46.3947 45.864 44.176 44.584C42.4267 43.6453 40.976 42.7707 39.824 41.96C38.7147 41.1493 37.776 40.1467 37.008 38.952C36.24 37.7573 35.856 36.3493 35.856 34.728C35.856 32.296 36.88 30.3333 38.928 28.84C41.0187 27.304 43.728 26.536 47.056 26.536C49.9147 26.536 52.24 27.0907 54.032 28.2C55.824 29.2667 56.72 30.696 56.72 32.488C56.72 33.64 56.336 34.5573 55.568 35.24C54.8 35.88 53.7547 36.2 52.432 36.2C51.4933 36.2 50.512 35.9653 49.488 35.496C50.0427 35.0693 50.4693 34.536 50.768 33.896C51.0667 33.256 51.216 32.5947 51.216 31.912C51.216 30.8453 50.832 29.9493 50.064 29.224C49.296 28.456 48.1653 28.072 46.672 28.072C45.2213 28.072 44.0907 28.456 43.28 29.224C42.512 29.992 42.128 30.9307 42.128 32.04ZM75.6445 54.264C75.6445 55.224 75.9485 55.704 76.5565 55.704C77.1645 55.704 77.7565 55.464 78.3325 54.984L78.7165 55.464C77.5325 56.776 76.1405 57.432 74.5405 57.432C73.3885 57.432 72.5565 57.144 72.0445 56.568C71.5645 55.96 71.3245 54.984 71.3245 53.64V46.296C71.3245 44.44 70.7325 43.512 69.5485 43.512C68.3965 43.512 67.4685 44.296 66.7645 45.864C66.0605 47.432 65.7085 49.48 65.7085 52.008C65.7085 53 65.7725 53.8 65.9005 54.408C66.0605 54.984 66.3165 55.528 66.6685 56.04L67.0525 56.52L66.6685 57H59.7085L59.4205 56.184L60.0925 56.04C60.6045 55.912 60.9405 55.72 61.1005 55.464C61.2605 55.176 61.3405 54.632 61.3405 53.832V36.696C61.3405 36.44 61.2765 36.232 61.1485 36.072C61.0525 35.912 60.9085 35.832 60.7165 35.832H59.2285L59.0365 35.352C59.6445 34.776 60.4285 34.328 61.3885 34.008C62.3805 33.656 63.3565 33.48 64.3165 33.48C64.7325 33.48 65.0685 33.576 65.3245 33.768C65.5805 33.928 65.7085 34.168 65.7085 34.488V46.344C66.1565 44.84 66.9405 43.592 68.0605 42.6C69.2125 41.576 70.4285 41.064 71.7085 41.064C73.0845 41.064 74.0765 41.512 74.6845 42.408C75.3245 43.304 75.6445 44.728 75.6445 46.68V54.264ZM79.6559 49.272C79.6559 46.744 80.3759 44.744 81.8159 43.272C83.2879 41.8 85.2719 41.064 87.7679 41.064C90.2639 41.064 92.2479 41.816 93.7199 43.32C95.1919 44.792 95.9279 46.776 95.9279 49.272C95.9279 51.768 95.1919 53.752 93.7199 55.224C92.2479 56.696 90.2639 57.432 87.7679 57.432C85.2719 57.432 83.2879 56.696 81.8159 55.224C80.3759 53.752 79.6559 51.768 79.6559 49.272ZM91.0799 49.368C91.0799 47.224 90.7759 45.48 90.1679 44.136C89.5599 42.76 88.7919 42.072 87.8639 42.072C86.8399 42.072 86.0079 42.744 85.3679 44.088C84.7279 45.4 84.4079 47.128 84.4079 49.272C84.4079 51.448 84.6959 53.176 85.2719 54.456C85.8799 55.736 86.6799 56.376 87.6719 56.376C88.6639 56.376 89.4799 55.736 90.1199 54.456C90.7599 53.144 91.0799 51.448 91.0799 49.368ZM104.941 57.432C103.405 57.432 102.205 56.936 101.341 55.944C100.509 54.92 99.9326 53.288 99.6126 51.048L98.6046 44.136C98.5726 43.88 98.5086 43.704 98.4126 43.608C98.3166 43.512 98.1726 43.464 97.9806 43.464H96.6846L96.5406 42.936C97.1806 42.36 97.9486 41.912 98.8446 41.592C99.7406 41.24 100.621 41.064 101.485 41.064C101.965 41.064 102.301 41.208 102.493 41.496C102.717 41.784 102.893 42.344 103.021 43.176L104.269 51.816C104.493 53.384 104.749 54.456 105.037 55.032C105.325 55.608 105.757 55.896 106.333 55.896C107.229 55.896 107.933 55.352 108.445 54.264C108.989 53.144 109.261 51.672 109.261 49.848C109.261 47.992 109.021 46.088 108.541 44.136C108.477 43.88 108.413 43.704 108.349 43.608C108.285 43.512 108.141 43.464 107.917 43.464H106.669L106.525 42.936C107.133 42.36 107.885 41.912 108.781 41.592C109.677 41.24 110.573 41.064 111.469 41.064C111.917 41.064 112.253 41.224 112.477 41.544C112.701 41.832 112.861 42.376 112.957 43.176L114.157 51.576C114.413 53.304 114.685 54.456 114.973 55.032C115.293 55.608 115.677 55.896 116.125 55.896C116.989 55.896 117.677 55.256 118.189 53.976C118.733 52.664 119.005 50.968 119.005 48.888C119.005 47.48 118.861 46.264 118.573 45.24C118.317 44.184 117.885 43.256 117.277 42.456L116.893 41.928L117.229 41.544L121.261 41.064C121.357 42.312 121.405 43.416 121.405 44.376C121.405 48.472 120.813 51.672 119.629 53.976C118.477 56.28 116.813 57.432 114.637 57.432C113.325 57.432 112.333 57.096 111.661 56.424C110.989 55.752 110.429 54.52 109.981 52.728C109.341 55.864 107.661 57.432 104.941 57.432ZM138.043 45.288C138.043 46.344 137.723 47.176 137.083 47.784C136.443 48.392 135.659 48.696 134.731 48.696C133.995 48.696 133.323 48.504 132.715 48.12C133.419 47.48 133.771 46.584 133.771 45.432C133.771 44.504 133.579 43.752 133.195 43.176C132.811 42.568 132.251 42.264 131.515 42.264C130.683 42.264 129.995 42.92 129.451 44.232C128.939 45.512 128.683 47.192 128.683 49.272C128.683 51.256 129.051 52.856 129.787 54.072C130.555 55.256 131.627 55.848 133.003 55.848C133.963 55.848 134.779 55.672 135.451 55.32C136.155 54.968 136.811 54.456 137.419 53.784L137.995 54.168C137.323 55.128 136.443 55.912 135.355 56.52C134.267 57.128 133.003 57.432 131.563 57.432C129.323 57.432 127.483 56.68 126.043 55.176C124.603 53.672 123.883 51.736 123.883 49.368C123.883 46.84 124.635 44.824 126.139 43.32C127.643 41.816 129.643 41.064 132.139 41.064C133.899 41.064 135.323 41.464 136.411 42.264C137.499 43.032 138.043 44.04 138.043 45.288ZM145.048 46.392C144.376 46.776 143.576 46.968 142.648 46.968C141.976 46.968 141.448 46.776 141.064 46.392C140.68 45.976 140.488 45.4 140.488 44.664C140.488 43.576 141.016 42.712 142.072 42.072C143.16 41.4 144.568 41.064 146.296 41.064C148.344 41.064 149.944 41.512 151.096 42.408C152.28 43.304 152.872 44.52 152.872 46.056V54.36C152.872 55.256 153.192 55.704 153.832 55.704C154.44 55.704 155.032 55.464 155.608 54.984L155.992 55.464C154.808 56.776 153.4 57.432 151.768 57.432C150.808 57.432 150.072 57.192 149.56 56.712C149.08 56.232 148.792 55.48 148.696 54.456H148.504C147.992 55.384 147.304 56.12 146.44 56.664C145.608 57.176 144.648 57.432 143.56 57.432C142.344 57.432 141.368 57.064 140.632 56.328C139.896 55.56 139.528 54.568 139.528 53.352C139.528 51.976 140.184 50.888 141.496 50.088C142.808 49.288 144.584 48.888 146.824 48.888C147.24 48.888 147.832 48.92 148.6 48.984V46.584C148.6 45.016 148.408 43.896 148.024 43.224C147.64 42.52 147.016 42.168 146.152 42.168C145.544 42.168 145.064 42.36 144.712 42.744C144.36 43.128 144.184 43.624 144.184 44.232C144.184 45.192 144.472 45.912 145.048 46.392ZM145.768 55.032C147.656 55.032 148.6 53.32 148.6 49.896C147 49.896 145.8 50.168 145 50.712C144.2 51.224 143.8 51.96 143.8 52.92C143.8 53.56 143.976 54.072 144.328 54.456C144.68 54.84 145.16 55.032 145.768 55.032ZM161.332 44.328C161.332 45.128 161.636 45.784 162.244 46.296C162.884 46.776 163.844 47.32 165.124 47.928C166.18 48.44 166.996 48.888 167.572 49.272C168.148 49.624 168.644 50.104 169.06 50.712C169.508 51.32 169.732 52.04 169.732 52.872C169.732 54.248 169.076 55.352 167.764 56.184C166.484 57.016 164.756 57.432 162.58 57.432C160.948 57.432 159.604 57.144 158.548 56.568C157.492 55.96 156.964 55.176 156.964 54.216C156.964 53.576 157.204 53.048 157.684 52.632C158.164 52.184 158.756 51.96 159.46 51.96C160.004 51.96 160.548 52.072 161.092 52.296C160.548 52.712 160.276 53.384 160.276 54.312C160.276 54.952 160.5 55.448 160.948 55.8C161.396 56.152 161.94 56.328 162.58 56.328C163.316 56.328 163.94 56.136 164.452 55.752C164.996 55.368 165.268 54.824 165.268 54.12C165.268 53.448 164.996 52.92 164.452 52.536C163.94 52.12 163.124 51.64 162.004 51.096C160.98 50.616 160.148 50.184 159.508 49.8C158.9 49.384 158.372 48.84 157.924 48.168C157.476 47.496 157.252 46.68 157.252 45.72C157.252 44.28 157.86 43.144 159.076 42.312C160.292 41.48 161.828 41.064 163.684 41.064C165.316 41.064 166.644 41.368 167.668 41.976C168.724 42.584 169.252 43.368 169.252 44.328C169.252 45.064 169.028 45.608 168.58 45.96C168.132 46.312 167.556 46.488 166.852 46.488C166.18 46.488 165.588 46.344 165.076 46.056C165.652 45.512 165.94 44.824 165.94 43.992C165.94 43.448 165.732 43.016 165.316 42.696C164.9 42.344 164.356 42.168 163.684 42.168C162.948 42.168 162.372 42.376 161.956 42.792C161.54 43.208 161.332 43.72 161.332 44.328ZM180.971 55.848C181.899 55.848 182.715 55.688 183.419 55.368C184.123 55.016 184.811 54.44 185.483 53.64L186.059 54.072C185.323 55.128 184.379 55.96 183.227 56.568C182.107 57.144 180.875 57.432 179.531 57.432C178.059 57.432 176.731 57.08 175.547 56.376C174.395 55.672 173.483 54.712 172.811 53.496C172.139 52.248 171.803 50.84 171.803 49.272C171.803 46.776 172.555 44.792 174.059 43.32C175.595 41.816 177.627 41.064 180.155 41.064C181.947 41.064 183.403 41.496 184.523 42.36C185.675 43.192 186.251 44.28 186.251 45.624C186.251 47.16 185.595 48.392 184.283 49.32C183.003 50.216 181.243 50.664 179.003 50.664C178.107 50.664 177.291 50.6 176.555 50.472C176.715 52.136 177.195 53.448 177.995 54.408C178.795 55.368 179.787 55.848 180.971 55.848ZM179.627 42.216C178.635 42.216 177.851 42.824 177.275 44.04C176.731 45.224 176.459 46.888 176.459 49.032V49.8C176.811 49.8 177.243 49.768 177.755 49.704C179.099 49.544 180.123 49.112 180.827 48.408C181.563 47.672 181.931 46.712 181.931 45.528C181.931 44.568 181.707 43.784 181.259 43.176C180.843 42.536 180.299 42.216 179.627 42.216Z" fill="#293252"/>
<path d="M205.351 20.652L184.475 17.1031L185.489 11.1387L212.329 15.7016L207.766 42.5419L201.802 41.5279L205.351 20.652Z" fill="#FF4334"/>
<path d="M19.1915 76.3349L40.3312 77.5615L39.9807 83.6014L12.8012 82.0243L14.3785 54.8446L20.4184 55.1951L19.1915 76.3349Z" fill="#FF4334"/>
</svg>
